<svg width="100" height="100" viewBox="0 0 100 100" fill="none" xmlns="http://www.w3.org/2000/svg">
<rect x="2.5" y="2.5" width="95" height="95" rx="17.5" stroke="black" stroke-width="5"/>
<path d="M47 26.5862C47 25.1579 48.1579 24 49.5862 24C51.0145 24 52.1724 25.1579 52.1724 26.5862V74.3448C52.1724 75.7731 51.0145 76.931 49.5862 76.931C48.1579 76.931 47 75.7731 47 74.3448V26.5862Z" fill="black"/>
<path d="M74.3448 47C75.7731 47 76.931 48.1579 76.931 49.5862C76.931 51.0145 75.7731 52.1724 74.3448 52.1724H26.5862C25.1579 52.1724 24 51.0145 24 49.5862C24 48.1579 25.1579 47 26.5862 47H74.3448Z" fill="black"/>
</svg>
