<svg width="580" height="580" viewBox="0 0 580 580" fill="none" xmlns="http://www.w3.org/2000/svg">
<g clip-path="url(#clip0_404_853)">
<path d="M580 290C580 450.163 450.163 580 290 580C129.837 580 0 450.163 0 290C0 129.837 129.837 0 290 0C450.163 0 580 129.837 580 290ZM34.1403 290C34.1403 431.307 148.693 545.86 290 545.86C431.307 545.86 545.86 431.307 545.86 290C545.86 148.693 431.307 34.1403 290 34.1403C148.693 34.1403 34.1403 148.693 34.1403 290Z" fill="black"/>
<path d="M275 152C275 143.716 281.716 137 290 137C298.284 137 305 143.716 305 152V429C305 437.284 298.284 444 290 444C281.716 444 275 437.284 275 429V152Z" fill="black"/>
<path d="M428.5 275.5C436.784 275.5 443.5 282.216 443.5 290.5C443.5 298.784 436.784 305.5 428.5 305.5H151.5C143.216 305.5 136.5 298.784 136.5 290.5C136.5 282.216 143.216 275.5 151.5 275.5H428.5Z" fill="black"/>
</g>
<defs>
<clipPath id="clip0_404_853">
<rect width="580" height="580" fill="white"/>
</clipPath>
</defs>
</svg>
