<svg width="580" height="580" viewBox="0 0 580 580" fill="none" xmlns="http://www.w3.org/2000/svg">
<g clip-path="url(#clip0_427_796)">
<mask id="mask0_427_796" style="mask-type:luminance" maskUnits="userSpaceOnUse" x="0" y="0" width="580" height="580">
<path d="M580 0H0V580H580V0Z" fill="white"/>
</mask>
<g mask="url(#mask0_427_796)">
<path d="M580 290C580 450.163 450.163 580 290 580C129.837 580 0 450.163 0 290C0 129.837 129.837 0 290 0C450.163 0 580 129.837 580 290ZM24.1403 290C24.1403 431.307 148.693 555.86 290 555.86C431.307 555.86 555.86 431.307 555.86 290C555.86 148.693 431.307 24.1403 290 24.1403C148.693 24.1403 24.1403 148.693 24.1403 290Z" fill="black"/>
<path d="M277 152C277 143.716 282.597 137 289.5 137C296.403 137 302 143.716 302 152V429C302 437.284 296.403 444 289.5 444C282.597 444 277 437.284 277 429V152Z" fill="black"/>
<path d="M428 278C436.284 278 443 283.597 443 290.5C443 297.403 436.284 303 428 303H151C142.716 303 136 297.403 136 290.5C136 283.597 142.716 278 151 278H428Z" fill="black"/>
</g>
</g>
<defs>
<clipPath id="clip0_427_796">
<rect width="580" height="580" fill="white"/>
</clipPath>
</defs>
</svg>
