<svg width="800" height="800" viewBox="0 0 800 800" fill="none" xmlns="http://www.w3.org/2000/svg">
<path d="M318 774C354.451 774 384 744.227 384 707.5C384 670.773 354.451 641 318 641C281.549 641 252 670.773 252 707.5C252 744.227 281.549 774 318 774Z" stroke="black" stroke-width="33.3333"/>
<path d="M627.5 774C664.227 774 694 744.227 694 707.5C694 670.773 664.227 641 627.5 641C590.773 641 561 670.773 561 707.5C561 744.227 590.773 774 627.5 774Z" stroke="black" stroke-width="33.3333"/>
<path d="M30 43H118.593L273.827 530H628" stroke="black" stroke-width="33.3333" stroke-linecap="round" stroke-linejoin="round"/>
<path d="M239.276 419L154 154H707.845C722.958 154 733.625 168.767 728.847 183.067L655.049 403.899C652.034 412.918 643.572 419 634.043 419H239.276Z" stroke="black" stroke-width="33.3333" stroke-linecap="round" stroke-linejoin="round"/>
</svg>
