<svg width="22" height="22" viewBox="0 0 22 22" fill="none" xmlns="http://www.w3.org/2000/svg">
<g clip-path="url(#clip0_423_803)">
<mask id="mask0_423_803" style="mask-type:luminance" maskUnits="userSpaceOnUse" x="0" y="0" width="22" height="22">
<path d="M22 0H0V22H22V0Z" fill="white"/>
</mask>
<g mask="url(#mask0_423_803)">
<path d="M19.0555 20.1045L17.4372 18.486L17.4354 18.4878L10.6946 11.747L2.31488 20.1265C1.41083 20.8898 0.532227 19.8076 1.28412 19.0555L2.90266 17.4372L2.90088 17.4354L9.64191 10.6944L1.26224 2.31488C0.498894 1.41083 1.58106 0.532227 2.3332 1.28412L4.09092 3.04158L4.0927 3.0398L10.6946 9.64166L19.0738 1.26224C19.9779 0.498894 20.8564 1.58106 20.1046 2.3332L18.3471 4.09093L18.3489 4.09271L11.7472 10.6944L20.1264 19.0738C20.8897 19.9778 19.8076 20.8564 19.0555 20.1045Z" fill="black"/>
</g>
</g>
<defs>
<clipPath id="clip0_423_803">
<rect width="22" height="22" fill="white"/>
</clipPath>
</defs>
</svg>
