<svg width="200" height="200" viewBox="0 0 200 200" fill="none" xmlns="http://www.w3.org/2000/svg">
<rect x="1" y="1" width="198" height="198" rx="19" stroke="black" stroke-width="2" stroke-linecap="round" stroke-dasharray="9 9"/>
<g clip-path="url(#clip0_413_865)">
<mask id="mask0_413_865" style="mask-type:luminance" maskUnits="userSpaceOnUse" x="104" y="97" width="29" height="29">
<path d="M132.784 97.0947H104.591V125.288H132.784V97.0947Z" fill="white"/>
</mask>
<g mask="url(#mask0_413_865)">
<path d="M132.784 111.191C132.784 118.977 126.473 125.288 118.687 125.288C110.902 125.288 104.591 118.977 104.591 111.191C104.591 103.406 110.902 97.0947 118.687 97.0947C126.473 97.0947 132.784 103.406 132.784 111.191ZM106.25 111.191C106.25 118.06 111.819 123.628 118.687 123.628C125.556 123.628 131.124 118.06 131.124 111.191C131.124 104.322 125.556 98.7542 118.687 98.7542C111.819 98.7542 106.25 104.322 106.25 111.191Z" fill="black"/>
<path d="M117.958 104.483C117.958 104.08 118.285 103.754 118.688 103.754C119.09 103.754 119.417 104.08 119.417 104.483V117.948C119.417 118.35 119.09 118.677 118.688 118.677C118.285 118.677 117.958 118.35 117.958 117.948V104.483Z" fill="black"/>
<path d="M125.42 110.486C125.822 110.486 126.149 110.813 126.149 111.215C126.149 111.618 125.822 111.945 125.42 111.945H111.955C111.553 111.945 111.226 111.618 111.226 111.215C111.226 110.813 111.553 110.486 111.955 110.486H125.42Z" fill="black"/>
</g>
</g>
<path fill-rule="evenodd" clip-rule="evenodd" d="M68.1695 74H118.458C119.101 74 119.627 74.5263 119.627 75.1695V97.0939H117.288V92.244L107.406 86.5135L91.0915 101.132C91.0915 101.191 91.033 101.191 91.033 101.191C91.0038 101.22 90.9745 101.234 90.9453 101.249C90.916 101.264 90.8868 101.278 90.8576 101.308C90.8576 101.366 90.7991 101.366 90.7991 101.366C90.7699 101.366 90.7406 101.381 90.7114 101.395C90.6821 101.41 90.6529 101.425 90.6237 101.425H90.5652H90.3313C90.2728 101.425 90.229 101.41 90.1851 101.395C90.1413 101.381 90.0974 101.366 90.0389 101.366H89.9805C89.8635 101.366 89.7466 101.308 89.6881 101.249L78.7534 93.5889L69.339 101.425V110.254H104.591V112.593H68.1695C67.5263 112.593 67 112.067 67 111.424V75.1695C67 74.5263 67.5263 74 68.1695 74ZM117.288 89.4957V76.339H69.339V98.3838L77.8178 91.1915C77.8178 91.133 77.8762 91.133 77.8762 91.133C77.9055 91.133 77.9201 91.1184 77.9347 91.1038C77.9493 91.0892 77.964 91.0745 77.9932 91.0745C78.0224 91.0745 78.0371 91.0599 78.0517 91.0453C78.0663 91.0307 78.0809 91.0161 78.1101 91.0161C78.1438 90.9824 78.1581 90.9681 78.1753 90.9621C78.188 90.9576 78.2022 90.9576 78.2271 90.9576H78.344H78.461H78.5779H78.6949H78.8118H78.9288C78.9873 91.0161 78.9873 91.0161 79.0457 91.0161C79.075 91.0161 79.0896 91.0307 79.1042 91.0453C79.1188 91.0599 79.1334 91.0745 79.1627 91.0745C79.1919 91.0745 79.2065 91.0892 79.2212 91.1038C79.2358 91.1184 79.2504 91.133 79.2796 91.133C79.2796 91.1915 79.3381 91.1915 79.3381 91.1915L90.2728 98.8516L106.412 84.1746H106.47C106.499 84.1746 106.514 84.1599 106.529 84.1453C106.543 84.1307 106.558 84.1161 106.587 84.1161C106.616 84.1161 106.631 84.1015 106.646 84.0868C106.66 84.0722 106.675 84.0576 106.704 84.0576C106.733 84.0576 106.748 84.043 106.763 84.0284C106.777 84.0137 106.792 83.9991 106.821 83.9991C106.88 83.9407 106.88 83.9407 106.938 83.9407H107.055H107.172H107.289H107.406H107.523H107.64C107.698 83.9991 107.698 83.9991 107.757 83.9991C107.786 83.9991 107.801 84.0137 107.815 84.0284C107.83 84.043 107.844 84.0576 107.874 84.0576H107.932L117.288 89.4957ZM96.2372 85.6949C96.2372 88.911 93.6059 91.5423 90.3898 91.5423C87.1737 91.5423 84.5423 88.911 84.5423 85.6949C84.5423 82.4788 87.1737 79.8474 90.3898 79.8474C93.6059 79.8474 96.2372 82.4788 96.2372 85.6949ZM93.8982 85.6949C93.8982 83.7652 92.3194 82.1864 90.3898 82.1864C88.4601 82.1864 86.8813 83.7652 86.8813 85.6949C86.8813 87.6245 88.4601 89.2034 90.3898 89.2034C92.3194 89.2034 93.8982 87.6245 93.8982 85.6949Z" fill="black"/>
<defs>
<clipPath id="clip0_413_865">
<rect width="28.193" height="28.193" fill="white" transform="translate(104.59 97.0938)"/>
</clipPath>
</defs>
</svg>
