<svg width="600" height="525" viewBox="0 0 600 525" fill="none" xmlns="http://www.w3.org/2000/svg">
<g clip-path="url(#clip0_405_887)">
<mask id="mask0_405_887" style="mask-type:luminance" maskUnits="userSpaceOnUse" x="0" y="0" width="600" height="525">
<path d="M600 0H0V525H600V0Z" fill="white"/>
</mask>
<g mask="url(#mask0_405_887)">
<path d="M300 525C291.458 525 283.223 521.957 276.804 516.428C252.566 495.583 229.198 475.995 208.581 458.715L208.476 458.625C148.027 407.962 95.8283 364.211 59.5093 321.112C18.9101 272.931 0 227.248 0 177.343C0 128.855 16.9052 84.1219 47.5982 51.378C78.6576 18.2471 121.275 0 167.615 0C202.249 0 233.968 10.769 261.887 32.0055C275.978 42.7251 288.748 55.8443 300 71.1469C311.256 55.8443 324.023 42.7251 338.119 32.0055C366.038 10.769 397.755 0 432.39 0C478.725 0 521.348 18.2471 552.407 51.378C583.099 84.1219 600 128.855 600 177.343C600 227.248 581.094 272.931 540.495 321.109C504.176 364.211 451.982 407.959 391.543 458.616C370.89 475.922 347.484 495.542 323.19 516.437C316.777 521.957 308.537 525 300 525ZM167.615 34.5671C131.209 34.5671 97.7646 48.8569 73.4344 74.8071C48.7427 101.149 35.1426 137.562 35.1426 177.343C35.1426 219.315 51.0039 256.854 86.5676 299.057C120.941 339.851 172.069 382.702 231.266 432.319L231.377 432.409C252.071 449.756 275.533 469.421 299.949 490.419C324.514 469.38 348.009 449.685 368.747 432.311C427.941 382.693 479.063 339.851 513.437 299.057C548.996 256.854 564.857 219.315 564.857 177.343C564.857 137.562 551.257 101.149 526.566 74.8071C502.239 48.8569 468.791 34.5671 432.39 34.5671C405.72 34.5671 381.234 42.9051 359.614 59.3467C340.348 74.0057 326.925 92.5363 319.057 105.503C315.009 112.17 307.888 116.15 300 116.15C292.112 116.15 284.991 112.17 280.942 105.503C273.079 92.5363 259.657 74.0057 240.386 59.3467C218.766 42.9051 194.28 34.5671 167.615 34.5671Z" fill="black"/>
</g>
</g>
<defs>
<clipPath id="clip0_405_887">
<rect width="600" height="525" fill="white"/>
</clipPath>
</defs>
</svg>
