<svg width="600" height="525" viewBox="0 0 600 525" fill="none" xmlns="http://www.w3.org/2000/svg">
<g clip-path="url(#clip0_405_881)">
<mask id="mask0_405_881" style="mask-type:luminance" maskUnits="userSpaceOnUse" x="0" y="0" width="600" height="525">
<path d="M600 0H0V525H600V0Z" fill="white"/>
</mask>
<g mask="url(#mask0_405_881)">
<path d="M300 525C291.458 525 283.223 521.957 276.804 516.428C252.566 495.583 229.198 475.995 208.581 458.715L208.476 458.625C148.027 407.962 95.8283 364.211 59.5093 321.112C18.9101 272.931 0 227.248 0 177.343C0 128.855 16.9052 84.1219 47.5982 51.378C78.6576 18.2471 121.275 0 167.615 0C202.249 0 233.968 10.769 261.887 32.0055C275.978 42.7251 288.748 55.8443 300 71.1469C311.256 55.8443 324.023 42.7251 338.119 32.0055C366.038 10.769 397.755 0 432.39 0C478.725 0 521.348 18.2471 552.407 51.378C583.099 84.1219 600 128.855 600 177.343C600 227.248 581.094 272.931 540.495 321.109C504.176 364.211 451.982 407.959 391.543 458.616C370.89 475.922 347.484 495.542 323.19 516.437C316.777 521.957 308.537 525 300 525Z" fill="black"/>
</g>
</g>
<defs>
<clipPath id="clip0_405_881">
<rect width="600" height="525" fill="white"/>
</clipPath>
</defs>
</svg>
