<svg width="700" height="800" viewBox="0 0 700 800" fill="none" xmlns="http://www.w3.org/2000/svg">
<path d="M350.001 422.718C434.16 422.718 502.386 344.746 502.386 248.564C502.386 152.381 434.16 74.4092 350.001 74.4092C265.841 74.4092 197.616 152.381 197.616 248.564C197.616 344.746 265.841 422.718 350.001 422.718Z" fill="black" stroke="black" stroke-width="32" stroke-miterlimit="10" stroke-linecap="round" stroke-linejoin="round"/>
<path d="M247.959 377.152C247.621 377.152 247.621 377.152 247.283 377.539" stroke="#0F0F0F" stroke-width="32" stroke-miterlimit="10" stroke-linecap="round" stroke-linejoin="round"/>
<path d="M517.928 412.292C605.44 473.304 664.907 581.04 670.989 704.995C671.327 716.194 663.556 725.461 653.757 725.461H46.2426C36.444 725.461 28.6727 716.194 29.0106 704.995C35.0925 581.813 94.222 474.462 180.72 413.45" stroke="black" stroke-width="32" stroke-miterlimit="10" stroke-linecap="round" stroke-linejoin="round"/>
</svg>
