<svg width="580" height="580" viewBox="0 0 580 580" fill="none" xmlns="http://www.w3.org/2000/svg">
<path d="M464.512 246.585C464.512 363.019 365.212 457.407 242.718 457.407C120.225 457.407 20.9238 363.019 20.9238 246.585C20.9238 130.151 120.225 35.7627 242.718 35.7627C365.212 35.7627 464.512 130.151 464.512 246.585ZM47.0346 246.585C47.0346 349.312 134.645 432.588 242.718 432.588C350.791 432.588 438.402 349.312 438.402 246.585C438.402 143.858 350.791 60.5818 242.718 60.5818C134.645 60.5818 47.0346 143.858 47.0346 246.585Z" fill="black"/>
<path d="M384.246 396.188C378.903 391.106 378.903 382.865 384.245 377.783V377.783C389.588 372.7 398.25 372.7 403.592 377.783L542.327 509.769C547.669 514.851 547.669 523.092 542.327 528.174V528.174C536.984 533.257 528.323 533.257 522.98 528.174L384.246 396.188Z" fill="black"/>
</svg>
